<?xml version="1.0" encoding="utf-8"?>
<!-- Generator: Adobe Illustrator 19.0.1, SVG Export Plug-In . SVG Version: 6.00 Build 0)  -->
<svg version="1.1" id="Layer_1" xmlns="http://www.w3.org/2000/svg" xmlns:xlink="http://www.w3.org/1999/xlink" x="0px" y="0px"
	 viewBox="0 0 911 146" style="enable-background:new 0 0 911 146;" xml:space="preserve">
<style type="text/css">
	.st0{fill:#FF257E;}
	.st1{fill:#02C2FA;}
	.st2{filter:url(#Adobe_OpacityMaskFilter);}
	.st3{fill:url(#SVGID_2_);}
	.st4{mask:url(#SVGID_1_);fill:#F6C6E6;}
	.st5{filter:url(#Adobe_OpacityMaskFilter_1_);}
	.st6{fill:url(#SVGID_4_);}
	.st7{mask:url(#SVGID_3_);fill:url(#SVGID_5_);}
	.st8{filter:url(#Adobe_OpacityMaskFilter_2_);}
	.st9{fill:url(#SVGID_7_);}
	.st10{mask:url(#SVGID_6_);fill:#ECD7EE;}
	.st11{filter:url(#Adobe_OpacityMaskFilter_3_);}
	.st12{fill:url(#SVGID_9_);}
	.st13{mask:url(#SVGID_8_);fill:url(#SVGID_10_);}
	.st14{filter:url(#Adobe_OpacityMaskFilter_4_);}
	.st15{opacity:0.4;fill:url(#SVGID_12_);}
	.st16{opacity:0.4;mask:url(#SVGID_11_);fill:url(#SVGID_13_);}
	.st17{filter:url(#Adobe_OpacityMaskFilter_5_);}
	.st18{fill:url(#SVGID_15_);}
	.st19{mask:url(#SVGID_14_);}
	.st20{fill:url(#SVGID_16_);}
	.st21{fill:#C9EEFE;}
	.st22{fill:url(#SVGID_17_);}
	.st23{filter:url(#Adobe_OpacityMaskFilter_6_);}
	.st24{fill:url(#SVGID_19_);}
	.st25{mask:url(#SVGID_18_);fill:url(#SVGID_20_);}
	.st26{filter:url(#Adobe_OpacityMaskFilter_7_);}
	.st27{fill:url(#SVGID_22_);}
	.st28{mask:url(#SVGID_21_);fill:url(#SVGID_23_);}
	.st29{filter:url(#Adobe_OpacityMaskFilter_8_);}
	.st30{fill:url(#SVGID_25_);}
	.st31{mask:url(#SVGID_24_);fill:#C9EEFE;}
	.st32{filter:url(#Adobe_OpacityMaskFilter_9_);}
	.st33{fill:url(#SVGID_27_);}
	.st34{mask:url(#SVGID_26_);fill:url(#SVGID_28_);}
	.st35{filter:url(#Adobe_OpacityMaskFilter_10_);}
	.st36{fill:url(#SVGID_30_);}
	.st37{mask:url(#SVGID_29_);fill:#C9EEFE;}
	.st38{filter:url(#Adobe_OpacityMaskFilter_11_);}
	.st39{fill:url(#SVGID_32_);}
	.st40{mask:url(#SVGID_31_);fill:url(#SVGID_33_);}
</style>
<path class="st0" d="M447.6,49.8c-2.2-2.2-4.7-4-7.7-5.2c-3-1.2-6.2-1.9-9.6-1.9c-3.4,0-6.7,0.7-9.7,2c-3,1.3-5.7,3.1-8,5.4
	c-2.3,2.3-4,4.9-5.3,8c-1.3,3.1-1.9,6.3-1.9,9.8c0,3.4,0.7,6.7,2,9.8c1.3,3.1,3.1,5.7,5.4,8c2.3,2.3,4.9,4.1,8,5.4
	c3,1.3,6.3,2,9.7,2c3.4,0,6.9-0.5,10.4-1.6c3.5-1.1,6.6-2.9,9.4-5.5c1.1-1,1.6-2.1,1.6-3.4c0-1.8-0.7-3.3-2.1-4.5
	c-1.2-1-2.4-1.5-3.7-1.5c-1.5,0-3.1,0.6-4.7,1.9c-1.2,1-2.7,1.9-4.3,2.5c-1.6,0.7-3.6,1-6,1c-3.3,0-6-0.9-8.1-2.7
	c-2.1-1.8-3.4-4.1-3.7-7h30.6c1.2,0,2.3-0.4,3.3-1.2c1-0.8,1.4-1.8,1.4-3.1c0-3.7-0.6-7-1.8-10.1C451.4,54.7,449.7,52,447.6,49.8z
	 M419.3,62.8c0.6-2.8,1.8-5,3.7-6.5c1.9-1.6,4.3-2.4,7.2-2.4c2.9,0,5.4,0.8,7.3,2.5c1.9,1.7,3.2,3.8,3.8,6.4H419.3z M394.2,48.9
	c-1.6-2-3.6-3.5-6.1-4.6c-2.5-1.1-5.3-1.6-8.6-1.6c-3.7,0-7.1,0.8-10,2.4c-3,1.6-5.3,3.6-6.9,5.8c-1.6-2.6-3.7-4.6-6.3-6
	c-2.6-1.5-5.6-2.2-9.1-2.2c-2.9,0-5.6,0.7-7.9,2c-2.3,1.4-4.3,3.1-5.9,5.1c0-1.8-0.6-3.4-1.9-4.7c-1.2-1.3-2.8-2-4.6-2
	c-1.8,0-3.4,0.7-4.7,2c-1.3,1.3-1.9,2.9-1.9,4.7V86c0,1.8,0.6,3.4,1.9,4.7c1.3,1.3,2.8,1.9,4.7,1.9c1.8,0,3.4-0.6,4.7-1.9
	c1.3-1.3,1.9-2.8,1.9-4.7V66c0-1.5,0.2-2.9,0.5-4.2c0.3-1.4,0.9-2.6,1.6-3.6c0.8-1.1,1.8-1.9,3.1-2.6c1.3-0.7,2.8-1,4.7-1
	c3.4,0,5.9,1.1,7.4,3.3c1.5,2.2,2.2,4.9,2.2,8.1v20c0,1.8,0.7,3.4,2,4.7c1.3,1.3,2.9,1.9,4.7,1.9c1.8,0,3.4-0.6,4.7-1.9
	c1.3-1.3,1.9-2.8,1.9-4.7V66c0-1.5,0.2-2.9,0.5-4.2c0.4-1.4,0.9-2.6,1.7-3.6c0.8-1.1,1.8-1.9,3-2.6c1.2-0.7,2.8-1,4.6-1
	c3.4,0,5.9,1.1,7.4,3.3c1.5,2.2,2.2,4.9,2.2,8.1v20c0,1.8,0.6,3.4,1.9,4.7c1.3,1.3,2.8,1.9,4.7,1.9c1.8,0,3.4-0.6,4.7-1.9
	c1.3-1.3,2-2.8,2-4.7V64.9c0-3.3-0.4-6.3-1.2-9C397,53.2,395.8,50.9,394.2,48.9z M468.7,17.6c-1.8,0-3.4,0.7-4.7,2
	c-1.3,1.3-2,2.9-2,4.7V86c0,1.8,0.7,3.4,2,4.7c1.3,1.3,2.9,1.9,4.7,1.9c1.8,0,3.4-0.6,4.7-1.9c1.3-1.3,1.9-2.8,1.9-4.7V24.3
	c0-1.8-0.6-3.4-1.9-4.7C472.1,18.2,470.5,17.6,468.7,17.6z M525.2,50.1c-2.3-2.3-4.9-4.1-8-5.4c-3.1-1.3-6.3-2-9.8-2
	c-3.4,0-6.7,0.7-9.8,2c-3.1,1.3-5.7,3.1-8,5.4c-2.3,2.3-4.1,4.9-5.4,8c-1.3,3.1-2,6.3-2,9.8c0,3.4,0.7,6.7,2,9.8
	c1.3,3.1,3.1,5.7,5.4,8c2.3,2.3,4.9,4.1,8,5.4c3.1,1.3,6.3,2,9.8,2c3.4,0,6.7-0.7,9.8-2c3.1-1.3,5.7-3.1,8-5.4
	c2.3-2.3,4.1-4.9,5.4-8c1.3-3.1,2-6.3,2-9.8c0-3.4-0.7-6.7-2-9.8C529.3,55,527.5,52.4,525.2,50.1z M518.5,73c-0.5,1.6-1.3,3-2.4,4.2
	c-1,1.2-2.3,2.2-3.7,2.9c-1.5,0.7-3.1,1-5.1,1c-1.9,0-3.6-0.3-5.1-1c-1.5-0.7-2.7-1.6-3.7-2.9c-1-1.2-1.8-2.6-2.3-4.2
	c-0.5-1.6-0.8-3.3-0.8-5.2c0-1.8,0.3-3.6,0.8-5.2c0.5-1.6,1.3-3,2.3-4.2c1-1.2,2.3-2.2,3.7-2.9c1.5-0.7,3.1-1,5.1-1
	c1.9,0,3.6,0.3,5.1,1c1.5,0.7,2.7,1.6,3.7,2.9c1,1.2,1.8,2.6,2.4,4.2c0.5,1.6,0.8,3.3,0.8,5.2C519.4,69.7,519.1,71.4,518.5,73z
	 M640.6,44.9c-1.1-1.1-2.5-1.7-4.2-1.7c-1.2,0-2.3,0.3-3.2,1c-1,0.7-1.7,1.5-2.3,2.5l-11.6,25.6l-11.8-25.6c-0.5-1-1.3-1.9-2.3-2.5
	c-1-0.7-2.1-1-3.2-1c-1.7,0-3.1,0.6-4.2,1.7c-1.1,1.1-1.7,2.5-1.7,4.2c0,0.5,0.3,1.7,1,3.5c0.7,1.8,1.6,4,2.7,6.5
	c1.1,2.5,2.3,5.2,3.6,8.1c1.3,2.9,2.6,5.6,3.8,8.2c1.2,2.6,2.3,4.9,3.2,6.9c1,2,1.6,3.4,2,4.2c-1.7,3.6-3.8,6.7-6.5,9.3
	c-2.6,2.6-5.7,4.8-9.2,6.6c-1,0.5-1.9,1.2-2.6,2c-0.7,0.8-1,1.8-1,3.1c0,1.5,0.5,2.8,1.6,4c1.1,1.2,2.4,1.8,3.8,1.8
	c0.9,0,1.6-0.1,2.2-0.4c5.6-2.3,10.4-5.6,14.4-9.8c4-4.2,7.2-9,9.7-14.5l16.8-36.9c0.4-0.9,0.5-1.7,0.5-2.5
	C642.2,47.4,641.7,46,640.6,44.9z M580.9,17.6c-1.8,0-3.4,0.6-4.7,1.9c-1.3,1.3-1.9,2.8-1.9,4.7v25.4c-0.4-0.8-1.1-1.6-1.9-2.4
	c-0.8-0.8-1.8-1.5-3-2.2c-1.2-0.7-2.5-1.2-3.9-1.6c-1.4-0.4-2.9-0.6-4.4-0.6c-3.4,0-6.5,0.7-9.4,2c-2.9,1.3-5.4,3.1-7.6,5.4
	c-2.2,2.3-3.8,4.9-5.1,8c-1.2,3.1-1.8,6.3-1.8,9.8c0,3.4,0.6,6.7,1.8,9.8c1.2,3.1,2.9,5.7,5.1,8c2.2,2.3,4.7,4.1,7.6,5.4
	c2.9,1.3,6,2,9.4,2c3.1,0,5.9-0.7,8.4-2c2.5-1.4,4.3-3.1,5.3-5.1c0,2.2,0.7,3.9,2,5c1.3,1.1,2.7,1.7,4.2,1.7c1.8,0,3.4-0.7,4.7-2
	c1.3-1.3,1.9-2.9,1.9-4.7V24.2c0-1.8-0.6-3.4-1.9-4.7C584.2,18.2,582.7,17.6,580.9,17.6z M573.4,73c-0.5,1.6-1.3,3-2.4,4.2
	c-1,1.2-2.3,2.2-3.7,2.9c-1.5,0.7-3.1,1-5.1,1c-1.9,0-3.6-0.3-5.1-1c-1.5-0.7-2.7-1.6-3.7-2.9s-1.8-2.6-2.3-4.2
	c-0.5-1.6-0.8-3.3-0.8-5.2c0-1.8,0.3-3.6,0.8-5.2c0.5-1.6,1.3-3,2.3-4.2c1-1.2,2.3-2.2,3.7-2.9c1.5-0.7,3.1-1,5.1-1
	c1.9,0,3.6,0.3,5.1,1c1.5,0.7,2.7,1.6,3.7,2.9c1,1.2,1.8,2.6,2.4,4.2c0.5,1.6,0.8,3.3,0.8,5.2C574.3,69.7,574,71.4,573.4,73z"/>
<path class="st1" d="M832.3,50.1c-2.2-2.3-4.7-4.1-7.6-5.4c-2.9-1.3-6-2-9.4-2c-3.1,0-5.8,0.7-8.2,2.1c-2.4,1.4-4.2,3.1-5.4,5
	c0-2.2-0.7-3.9-2-5c-1.4-1.1-2.8-1.7-4.2-1.7c-1.8,0-3.4,0.7-4.7,2c-1.3,1.3-1.9,2.9-1.9,4.7v56.7c0,1.8,0.6,3.4,1.9,4.7
	c1.3,1.3,2.8,1.9,4.7,1.9c1.8,0,3.4-0.6,4.7-1.9c1.3-1.3,2-2.8,2-4.7V86.2c0.4,0.8,1.1,1.6,1.9,2.4c0.8,0.8,1.8,1.5,3,2.2
	c1.1,0.7,2.4,1.2,3.8,1.6c1.4,0.4,2.9,0.6,4.4,0.6c3.4,0,6.5-0.7,9.4-2c2.9-1.3,5.4-3.1,7.6-5.4c2.2-2.3,3.8-4.9,5.1-8
	c1.2-3.1,1.8-6.3,1.8-9.8c0-3.4-0.6-6.7-1.8-9.8C836.1,55,834.5,52.4,832.3,50.1z M825.1,73c-0.5,1.6-1.3,3-2.3,4.2
	s-2.3,2.2-3.7,2.9c-1.5,0.7-3.1,1-5.1,1c-1.9,0-3.6-0.3-5.1-1c-1.5-0.7-2.7-1.6-3.7-2.9c-1-1.2-1.8-2.6-2.3-4.2
	c-0.5-1.6-0.8-3.3-0.8-5.2c0-1.8,0.3-3.6,0.8-5.2c0.5-1.6,1.3-3,2.3-4.2c1-1.2,2.3-2.2,3.7-2.9c1.5-0.7,3.1-1,5.1-1
	c1.9,0,3.6,0.3,5.1,1c1.5,0.7,2.7,1.6,3.7,2.9c1,1.2,1.8,2.6,2.3,4.2c0.5,1.6,0.8,3.3,0.8,5.2C825.9,69.7,825.6,71.4,825.1,73z
	 M716.6,50.1c-2.3-2.3-4.9-4.1-8-5.4c-3.1-1.3-6.3-2-9.8-2c-3.4,0-6.7,0.7-9.8,2c-3.1,1.3-5.7,3.1-8,5.4c-2.3,2.3-4.1,4.9-5.4,8
	c-1.3,3.1-2,6.3-2,9.8c0,3.4,0.7,6.7,2,9.8c1.3,3.1,3.1,5.7,5.4,8c2.3,2.3,4.9,4.1,8,5.4c3.1,1.3,6.3,2,9.8,2c3.4,0,6.7-0.7,9.8-2
	c3.1-1.3,5.7-3.1,8-5.4c2.3-2.3,4.1-4.9,5.4-8c1.3-3.1,2-6.3,2-9.8c0-3.4-0.7-6.7-2-9.8C720.7,55,718.9,52.4,716.6,50.1z M710,73
	c-0.5,1.6-1.3,3-2.4,4.2c-1,1.2-2.3,2.2-3.7,2.9c-1.5,0.7-3.1,1-5.1,1c-1.9,0-3.6-0.3-5.1-1c-1.5-0.7-2.7-1.6-3.7-2.9
	s-1.8-2.6-2.3-4.2c-0.5-1.6-0.8-3.3-0.8-5.2c0-1.8,0.3-3.6,0.8-5.2c0.5-1.6,1.3-3,2.3-4.2c1-1.2,2.3-2.2,3.7-2.9
	c1.5-0.7,3.1-1,5.1-1c1.9,0,3.6,0.3,5.1,1c1.5,0.7,2.7,1.6,3.7,2.9c1,1.2,1.8,2.6,2.4,4.2c0.5,1.6,0.8,3.3,0.8,5.2
	C710.8,69.7,710.5,71.4,710,73z M658.1,17.6c-1.8,0-3.4,0.7-4.7,2c-1.3,1.3-2,2.9-2,4.7V86c0,1.8,0.7,3.4,2,4.7
	c1.3,1.3,2.9,1.9,4.7,1.9c1.8,0,3.4-0.6,4.7-1.9c1.3-1.3,1.9-2.8,1.9-4.7V24.3c0-1.8-0.6-3.4-1.9-4.7
	C661.5,18.2,659.9,17.6,658.1,17.6z M883.3,67.8c-1.5-1.1-3.3-2.1-5.4-3c-2.1-0.8-4.3-1.7-6.8-2.5c-3.3-1.1-5.6-1.9-7-2.5
	c-1.4-0.5-2-1.5-2-2.8c0-1.4,0.7-2.3,2-2.7c1.3-0.4,3.2-0.7,5.6-0.7c1.9,0,3.8,0.2,5.7,0.7c1.9,0.4,3.7,1,5.5,1.5
	c0.7,0.2,1.3,0.3,1.9,0.3c1.2,0.1,2.2-0.2,3.2-0.8c1-0.6,1.6-1.5,2-2.7c0.2-0.7,0.3-1.3,0.3-1.9c0-2.3-1.2-4-3.7-5.1
	c-2.3-1-4.7-1.7-7.1-2.3c-2.4-0.5-5.3-0.8-8.8-0.8c-2.7,0-5.2,0.3-7.6,1c-2.3,0.7-4.4,1.6-6,2.7c-1.7,1.2-3,2.6-4,4.3
	c-1,1.7-1.5,3.6-1.5,5.7c0,3.2,1,6,3,8.4c2,2.4,5.4,4.4,10.2,6.1c2.7,1,4.9,1.7,6.6,2.3c1.7,0.6,3,1.1,4,1.6c0.9,0.5,1.5,1,1.9,1.4
	c0.3,0.4,0.5,1,0.5,1.6c0,0.8-0.3,1.5-0.9,2c-0.6,0.5-1.3,1-2.3,1.3c-0.9,0.3-2,0.6-3.1,0.7c-1.2,0.1-2.3,0.2-3.4,0.2
	c-2,0-4-0.3-5.9-0.8c-2-0.5-4-1.2-5.9-2.1c-0.9-0.4-1.7-0.7-2.5-0.7c-2.1,0-3.5,1.1-4.3,3.2c-0.3,0.6-0.4,1.2-0.4,2c0,1,0.3,2,0.9,3
	c0.6,1,1.4,1.7,2.5,2.3c2.6,1.3,5.5,2.3,8.5,2.9c3,0.6,5.8,0.9,8.2,0.9c3.5,0,6.6-0.4,9.3-1.3c2.7-0.8,4.9-2,6.6-3.4
	c1.8-1.4,3.1-3.1,4-4.9c0.9-1.8,1.3-3.8,1.3-5.8c0-2.3-0.4-4.2-1.3-5.8C886,70.3,884.8,69,883.3,67.8z M772.5,50.1
	c-2.3-2.3-4.9-4.1-8-5.4c-3.1-1.3-6.3-2-9.8-2c-3.4,0-6.7,0.7-9.8,2c-3.1,1.3-5.7,3.1-8,5.4c-2.3,2.3-4.1,4.9-5.4,8
	c-1.3,3.1-2,6.3-2,9.8c0,3.4,0.7,6.7,2,9.8c1.3,3.1,3.1,5.7,5.4,8c2.3,2.3,4.9,4.1,8,5.4c3.1,1.3,6.3,2,9.8,2c3.4,0,6.7-0.7,9.8-2
	c3.1-1.3,5.7-3.1,8-5.4c2.3-2.3,4.1-4.9,5.4-8c1.3-3.1,2-6.3,2-9.8c0-3.4-0.7-6.7-2-9.8C776.6,55,774.8,52.4,772.5,50.1z M765.9,73
	c-0.5,1.6-1.3,3-2.4,4.2c-1,1.2-2.3,2.2-3.7,2.9c-1.5,0.7-3.1,1-5.1,1c-1.9,0-3.6-0.3-5.1-1c-1.5-0.7-2.7-1.6-3.7-2.9
	c-1-1.2-1.8-2.6-2.3-4.2c-0.5-1.6-0.8-3.3-0.8-5.2c0-1.8,0.3-3.6,0.8-5.2c0.5-1.6,1.3-3,2.3-4.2c1-1.2,2.3-2.2,3.7-2.9
	c1.5-0.7,3.1-1,5.1-1c1.9,0,3.6,0.3,5.1,1c1.5,0.7,2.7,1.6,3.7,2.9c1,1.2,1.8,2.6,2.4,4.2c0.5,1.6,0.8,3.3,0.8,5.2
	C766.7,69.7,766.4,71.4,765.9,73z"/>
<g>
	<g>
		<defs>
			<filter id="Adobe_OpacityMaskFilter" filterUnits="userSpaceOnUse" x="215.5" y="26.1" width="46.9" height="78.5">
				
					<feColorMatrix  type="matrix" values="-1 0 0 0 1  0 -1 0 0 1  0 0 -1 0 1  0 0 0 1 0" color-interpolation-filters="sRGB" result="source"/>
			</filter>
		</defs>
		<mask maskUnits="userSpaceOnUse" x="215.5" y="26.1" width="46.9" height="78.5" id="SVGID_1_">
			<g class="st2">
				<linearGradient id="SVGID_2_" gradientUnits="userSpaceOnUse" x1="238.911" y1="26.7347" x2="238.911" y2="104.421">
					<stop  offset="0" style="stop-color:#000000"/>
					<stop  offset="0.1359" style="stop-color:#030303"/>
					<stop  offset="0.2184" style="stop-color:#0B0B0B"/>
					<stop  offset="0.2867" style="stop-color:#191919"/>
					<stop  offset="0.3472" style="stop-color:#2E2E2E"/>
					<stop  offset="0.4026" style="stop-color:#484848"/>
					<stop  offset="0.4534" style="stop-color:#686868"/>
					<stop  offset="0.485" style="stop-color:#808080"/>
					<stop  offset="0.5335" style="stop-color:#858585"/>
					<stop  offset="0.5944" style="stop-color:#959595"/>
					<stop  offset="0.6618" style="stop-color:#AEAEAE"/>
					<stop  offset="0.7339" style="stop-color:#D2D2D2"/>
					<stop  offset="0.8085" style="stop-color:#FFFFFF"/>
				</linearGradient>
				<path class="st3" d="M262.4,26.1c-12.3,0-22.2,17.6-22.2,39.3s9.9,39.3,22.2,39.3h-24.7c-12.3,0-22.2-17.6-22.2-39.3
					s9.9-39.3,22.2-39.3H262.4z"/>
			</g>
		</mask>
		<path class="st4" d="M262.4,26.1c-12.3,0-22.2,17.6-22.2,39.3s9.9,39.3,22.2,39.3h-24.7c-12.3,0-22.2-17.6-22.2-39.3
			s9.9-39.3,22.2-39.3H262.4z"/>
		<defs>
			<filter id="Adobe_OpacityMaskFilter_1_" filterUnits="userSpaceOnUse" x="237.7" y="26.1" width="46.9" height="78.5">
				
					<feColorMatrix  type="matrix" values="-1 0 0 0 1  0 -1 0 0 1  0 0 -1 0 1  0 0 0 1 0" color-interpolation-filters="sRGB" result="source"/>
			</filter>
		</defs>
		<mask maskUnits="userSpaceOnUse" x="237.7" y="26.1" width="46.9" height="78.5" id="SVGID_3_">
			<g class="st5">
				<linearGradient id="SVGID_4_" gradientUnits="userSpaceOnUse" x1="261.1201" y1="26.2986" x2="261.1201" y2="104.3659">
					<stop  offset="0" style="stop-color:#000000"/>
					<stop  offset="0.3707" style="stop-color:#000000"/>
					<stop  offset="0.7282" style="stop-color:#000000"/>
					<stop  offset="1" style="stop-color:#FFFFFF"/>
				</linearGradient>
				<path class="st6" d="M237.7,104.7c12.3,0,22.2-17.6,22.2-39.3s-9.9-39.3-22.2-39.3h24.7c12.3,0,22.2,17.6,22.2,39.3
					s-9.9,39.3-22.2,39.3H237.7z"/>
			</g>
		</mask>
		<linearGradient id="SVGID_5_" gradientUnits="userSpaceOnUse" x1="261.1201" y1="26.2986" x2="261.1201" y2="104.3659">
			<stop  offset="0" style="stop-color:#FBB9DF"/>
			<stop  offset="0.3707" style="stop-color:#F80A8D"/>
			<stop  offset="0.7282" style="stop-color:#FC95CE"/>
			<stop  offset="1" style="stop-color:#FC95CE"/>
		</linearGradient>
		<path class="st7" d="M237.7,104.7c12.3,0,22.2-17.6,22.2-39.3s-9.9-39.3-22.2-39.3h24.7c12.3,0,22.2,17.6,22.2,39.3
			s-9.9,39.3-22.2,39.3H237.7z"/>
	</g>
	<g>
		<defs>
			<filter id="Adobe_OpacityMaskFilter_2_" filterUnits="userSpaceOnUse" x="148.1" y="11.5" width="64.3" height="107.7">
				
					<feColorMatrix  type="matrix" values="-1 0 0 0 1  0 -1 0 0 1  0 0 -1 0 1  0 0 0 1 0" color-interpolation-filters="sRGB" result="source"/>
			</filter>
		</defs>
		<mask maskUnits="userSpaceOnUse" x="148.1" y="11.5" width="64.3" height="107.7" id="SVGID_6_">
			<g class="st8">
				<linearGradient id="SVGID_7_" gradientUnits="userSpaceOnUse" x1="180.218" y1="11.9627" x2="180.218" y2="119.4623">
					<stop  offset="0" style="stop-color:#000000"/>
					<stop  offset="0.1359" style="stop-color:#030303"/>
					<stop  offset="0.2184" style="stop-color:#0B0B0B"/>
					<stop  offset="0.2867" style="stop-color:#191919"/>
					<stop  offset="0.3472" style="stop-color:#2E2E2E"/>
					<stop  offset="0.4026" style="stop-color:#484848"/>
					<stop  offset="0.4534" style="stop-color:#686868"/>
					<stop  offset="0.485" style="stop-color:#808080"/>
					<stop  offset="0.5335" style="stop-color:#858585"/>
					<stop  offset="0.5944" style="stop-color:#959595"/>
					<stop  offset="0.6618" style="stop-color:#AEAEAE"/>
					<stop  offset="0.7339" style="stop-color:#D2D2D2"/>
					<stop  offset="0.8085" style="stop-color:#FFFFFF"/>
				</linearGradient>
				<path class="st9" d="M212.4,11.5c-16.8,0-30.4,24.1-30.4,53.8c0,29.7,13.6,53.8,30.4,53.8h-33.9c-16.8,0-30.4-24.1-30.4-53.8
					c0-29.7,13.6-53.8,30.4-53.8H212.4z"/>
			</g>
		</mask>
		<path class="st10" d="M212.4,11.5c-16.8,0-30.4,24.1-30.4,53.8c0,29.7,13.6,53.8,30.4,53.8h-33.9c-16.8,0-30.4-24.1-30.4-53.8
			c0-29.7,13.6-53.8,30.4-53.8H212.4z"/>
		<defs>
			<filter id="Adobe_OpacityMaskFilter_3_" filterUnits="userSpaceOnUse" x="178.5" y="11.5" width="64.3" height="107.7">
				
					<feColorMatrix  type="matrix" values="-1 0 0 0 1  0 -1 0 0 1  0 0 -1 0 1  0 0 0 1 0" color-interpolation-filters="sRGB" result="source"/>
			</filter>
		</defs>
		<mask maskUnits="userSpaceOnUse" x="178.5" y="11.5" width="64.3" height="107.7" id="SVGID_8_">
			<g class="st11">
				<linearGradient id="SVGID_9_" gradientUnits="userSpaceOnUse" x1="210.666" y1="11.8283" x2="210.666" y2="119.2137">
					<stop  offset="0" style="stop-color:#000000"/>
					<stop  offset="0.3707" style="stop-color:#000000"/>
					<stop  offset="0.7777" style="stop-color:#000000"/>
					<stop  offset="1" style="stop-color:#FFFFFF"/>
				</linearGradient>
				<path class="st12" d="M178.5,119.2c16.8,0,30.4-24.1,30.4-53.8c0-29.7-13.6-53.8-30.4-53.8h33.9c16.8,0,30.4,24.1,30.4,53.8
					c0,29.7-13.6,53.8-30.4,53.8H178.5z"/>
			</g>
		</mask>
		<linearGradient id="SVGID_10_" gradientUnits="userSpaceOnUse" x1="210.666" y1="11.8283" x2="210.666" y2="119.2137">
			<stop  offset="0" style="stop-color:#EDDDF0"/>
			<stop  offset="0.3707" style="stop-color:#BD38AE"/>
			<stop  offset="0.7777" style="stop-color:#E8B9E3"/>
			<stop  offset="1" style="stop-color:#E8B9E3"/>
		</linearGradient>
		<path class="st13" d="M178.5,119.2c16.8,0,30.4-24.1,30.4-53.8c0-29.7-13.6-53.8-30.4-53.8h33.9c16.8,0,30.4,24.1,30.4,53.8
			c0,29.7-13.6,53.8-30.4,53.8H178.5z"/>
		<defs>
			<filter id="Adobe_OpacityMaskFilter_4_" filterUnits="userSpaceOnUse" x="215.5" y="26.8" width="27.4" height="77.2">
				
					<feColorMatrix  type="matrix" values="-1 0 0 0 1  0 -1 0 0 1  0 0 -1 0 1  0 0 0 1 0" color-interpolation-filters="sRGB" result="source"/>
			</filter>
		</defs>
		<mask maskUnits="userSpaceOnUse" x="215.5" y="26.8" width="27.4" height="77.2" id="SVGID_11_">
			<g class="st14">
				<linearGradient id="SVGID_12_" gradientUnits="userSpaceOnUse" x1="264.4433" y1="58.969" x2="203.9934" y2="71.5364">
					<stop  offset="0" style="stop-color:#000000"/>
					<stop  offset="0.1444" style="stop-color:#414141"/>
					<stop  offset="0.3083" style="stop-color:#848484"/>
					<stop  offset="0.4571" style="stop-color:#B9B9B9"/>
					<stop  offset="0.5852" style="stop-color:#DFDFDF"/>
					<stop  offset="0.6877" style="stop-color:#F6F6F6"/>
					<stop  offset="0.7516" style="stop-color:#FFFFFF"/>
				</linearGradient>
				<path class="st15" d="M233.6,26.8c-10.3,3.4-18.1,19.4-18.1,38.6s7.8,35.2,18.1,38.6c5.7-9.8,9.2-23.4,9.2-38.6
					S239.3,36.6,233.6,26.8z"/>
			</g>
		</mask>
		<linearGradient id="SVGID_13_" gradientUnits="userSpaceOnUse" x1="264.4433" y1="58.969" x2="203.9934" y2="71.5364">
			<stop  offset="0" style="stop-color:#FC0C8E"/>
			<stop  offset="0.7516" style="stop-color:#F80A8D"/>
		</linearGradient>
		<path class="st16" d="M233.6,26.8c-10.3,3.4-18.1,19.4-18.1,38.6s7.8,35.2,18.1,38.6c5.7-9.8,9.2-23.4,9.2-38.6
			S239.3,36.6,233.6,26.8z"/>
	</g>
	<g>
		<defs>
			<filter id="Adobe_OpacityMaskFilter_5_" filterUnits="userSpaceOnUse" x="76.4" y="1" width="77.2" height="129.2">
				
					<feColorMatrix  type="matrix" values="-1 0 0 0 1  0 -1 0 0 1  0 0 -1 0 1  0 0 0 1 0" color-interpolation-filters="sRGB" result="source"/>
			</filter>
		</defs>
		<mask maskUnits="userSpaceOnUse" x="76.4" y="1" width="77.2" height="129.2" id="SVGID_14_">
			<g class="st17">
				<linearGradient id="SVGID_15_" gradientUnits="userSpaceOnUse" x1="114.9758" y1="0.8571" x2="114.9758" y2="129.7392">
					<stop  offset="0" style="stop-color:#000000"/>
					<stop  offset="0.1359" style="stop-color:#030303"/>
					<stop  offset="0.2184" style="stop-color:#0B0B0B"/>
					<stop  offset="0.2867" style="stop-color:#191919"/>
					<stop  offset="0.3472" style="stop-color:#2E2E2E"/>
					<stop  offset="0.4026" style="stop-color:#484848"/>
					<stop  offset="0.4534" style="stop-color:#686868"/>
					<stop  offset="0.485" style="stop-color:#808080"/>
					<stop  offset="0.5335" style="stop-color:#858585"/>
					<stop  offset="0.5944" style="stop-color:#959595"/>
					<stop  offset="0.6618" style="stop-color:#AEAEAE"/>
					<stop  offset="0.7339" style="stop-color:#D2D2D2"/>
					<stop  offset="0.8085" style="stop-color:#FFFFFF"/>
				</linearGradient>
				<path class="st18" d="M153.6,1C133.4,1,117,29.9,117,65.6c0,35.7,16.4,64.6,36.5,64.6h-40.6c-20.2,0-36.5-28.9-36.5-64.6
					C76.4,29.9,92.7,1,112.9,1H153.6z"/>
			</g>
		</mask>
		<g class="st19">
			<linearGradient id="SVGID_16_" gradientUnits="userSpaceOnUse" x1="114.9758" y1="2.0279" x2="114.9758" y2="129.8509">
				<stop  offset="0" style="stop-color:#C9EEFE"/>
				<stop  offset="0.2175" style="stop-color:#CCEFFE;stop-opacity:0.7779"/>
				<stop  offset="0.3495" style="stop-color:#D4F3FE;stop-opacity:0.6432"/>
				<stop  offset="0.4584" style="stop-color:#E2FAFE;stop-opacity:0.5321"/>
				<stop  offset="0.4898" style="stop-color:#E8FDFE;stop-opacity:0.5"/>
				<stop  offset="0.6496" style="stop-color:#EDFDFE;stop-opacity:0.2493"/>
				<stop  offset="0.8085" style="stop-color:#F9FEFF;stop-opacity:0"/>
			</linearGradient>
			<path class="st20" d="M153.6,1C133.4,1,117,29.9,117,65.6c0,35.7,16.4,64.6,36.5,64.6h-40.6c-20.2,0-36.5-28.9-36.5-64.6
				C76.4,29.9,92.7,1,112.9,1H153.6z"/>
			<path class="st21" d="M153.6,1C133.4,1,117,29.9,117,65.6c0,35.7,16.4,64.6,36.5,64.6h-40.6c-20.2,0-36.5-28.9-36.5-64.6
				C76.4,29.9,92.7,1,112.9,1H153.6z"/>
		</g>
		<linearGradient id="SVGID_17_" gradientUnits="userSpaceOnUse" x1="151.5182" y1="0.8338" x2="151.5182" y2="130.075">
			<stop  offset="0" style="stop-color:#D7E8FD"/>
			<stop  offset="0.1828" style="stop-color:#6CB0EC"/>
			<stop  offset="0.277" style="stop-color:#5395E0"/>
			<stop  offset="0.4103" style="stop-color:#4396DE"/>
			<stop  offset="0.5312" style="stop-color:#4698DF"/>
			<stop  offset="0.632" style="stop-color:#519EE1"/>
			<stop  offset="0.7253" style="stop-color:#62A8E5"/>
			<stop  offset="0.7344" style="stop-color:#64A9E5"/>
			<stop  offset="0.7948" style="stop-color:#76B3E9;stop-opacity:0.7726"/>
			<stop  offset="0.9157" style="stop-color:#A5CDF3;stop-opacity:0.3176"/>
			<stop  offset="1" style="stop-color:#CAE1FB;stop-opacity:0"/>
		</linearGradient>
		<path class="st22" d="M112.9,130.2c20.2,0,36.5-28.9,36.5-64.6c0-35.7-16.4-64.6-36.5-64.6h40.6c20.2,0,36.5,28.9,36.5,64.6
			c0,35.7-16.4,64.6-36.5,64.6H112.9z"/>
		<defs>
			<filter id="Adobe_OpacityMaskFilter_6_" filterUnits="userSpaceOnUse" x="148.8" y="12.2" width="41.3" height="106.5">
				
					<feColorMatrix  type="matrix" values="-1 0 0 0 1  0 -1 0 0 1  0 0 -1 0 1  0 0 0 1 0" color-interpolation-filters="sRGB" result="source"/>
			</filter>
		</defs>
		<mask maskUnits="userSpaceOnUse" x="148.8" y="12.2" width="41.3" height="106.5" id="SVGID_18_">
			<g class="st23">
				<linearGradient id="SVGID_19_" gradientUnits="userSpaceOnUse" x1="210.007" y1="56.53" x2="137.9056" y2="74.4721">
					<stop  offset="0" style="stop-color:#000000"/>
					<stop  offset="0.1444" style="stop-color:#414141"/>
					<stop  offset="0.3083" style="stop-color:#848484"/>
					<stop  offset="0.4571" style="stop-color:#B9B9B9"/>
					<stop  offset="0.5852" style="stop-color:#DFDFDF"/>
					<stop  offset="0.6877" style="stop-color:#F6F6F6"/>
					<stop  offset="0.7516" style="stop-color:#FFFFFF"/>
				</linearGradient>
				<path class="st24" d="M174.1,12.2c-12.5,3.2-22.5,19.8-25.3,41.4c0.4,3.9,0.6,7.9,0.6,12.1c0,4-0.2,8-0.6,11.8
					c2.8,21.6,12.9,38.3,25.6,41.3c9.5-11.7,15.7-31.1,15.7-53.1C190.1,43.4,183.8,23.8,174.1,12.2z"/>
			</g>
		</mask>
		<linearGradient id="SVGID_20_" gradientUnits="userSpaceOnUse" x1="210.007" y1="56.53" x2="137.9056" y2="74.4721">
			<stop  offset="0" style="stop-color:#BD38AE"/>
			<stop  offset="0.7516" style="stop-color:#BD38AE"/>
		</linearGradient>
		<path class="st25" d="M174.1,12.2c-12.5,3.2-22.5,19.8-25.3,41.4c0.4,3.9,0.6,7.9,0.6,12.1c0,4-0.2,8-0.6,11.8
			c2.8,21.6,12.9,38.3,25.6,41.3c9.5-11.7,15.7-31.1,15.7-53.1C190.1,43.4,183.8,23.8,174.1,12.2z"/>
		<defs>
			<filter id="Adobe_OpacityMaskFilter_7_" filterUnits="userSpaceOnUse" x="148.8" y="12.2" width="41.3" height="106.5">
				
					<feColorMatrix  type="matrix" values="-1 0 0 0 1  0 -1 0 0 1  0 0 -1 0 1  0 0 0 1 0" color-interpolation-filters="sRGB" result="source"/>
			</filter>
		</defs>
		<mask maskUnits="userSpaceOnUse" x="148.8" y="12.2" width="41.3" height="106.5" id="SVGID_21_">
			<g class="st26">
				<linearGradient id="SVGID_22_" gradientUnits="userSpaceOnUse" x1="169.4665" y1="0.8338" x2="169.4665" y2="130.1902">
					<stop  offset="0" style="stop-color:#000000"/>
					<stop  offset="0.1828" style="stop-color:#000000"/>
					<stop  offset="0.277" style="stop-color:#FFFFFF;stop-opacity:0"/>
				</linearGradient>
				<path class="st27" d="M174.1,12.2c-12.5,3.2-22.5,19.8-25.3,41.4c0.4,3.9,0.6,7.9,0.6,12.1c0,4-0.2,8-0.6,11.8
					c2.8,21.6,12.9,38.3,25.6,41.3c9.5-11.7,15.7-31.1,15.7-53.1C190.1,43.4,183.8,23.8,174.1,12.2z"/>
			</g>
		</mask>
		<linearGradient id="SVGID_23_" gradientUnits="userSpaceOnUse" x1="169.4665" y1="0.8338" x2="169.4665" y2="130.1902">
			<stop  offset="0" style="stop-color:#D7E8FD"/>
			<stop  offset="0.1828" style="stop-color:#6CB0EC"/>
			<stop  offset="0.277" style="stop-color:#5395E0"/>
		</linearGradient>
		<path class="st28" d="M174.1,12.2c-12.5,3.2-22.5,19.8-25.3,41.4c0.4,3.9,0.6,7.9,0.6,12.1c0,4-0.2,8-0.6,11.8
			c2.8,21.6,12.9,38.3,25.6,41.3c9.5-11.7,15.7-31.1,15.7-53.1C190.1,43.4,183.8,23.8,174.1,12.2z"/>
	</g>
	<g>
		<defs>
			<filter id="Adobe_OpacityMaskFilter_8_" filterUnits="userSpaceOnUse" x="32.3" y="11.5" width="64.3" height="107.7">
				
					<feColorMatrix  type="matrix" values="-1 0 0 0 1  0 -1 0 0 1  0 0 -1 0 1  0 0 0 1 0" color-interpolation-filters="sRGB" result="source"/>
			</filter>
		</defs>
		<mask maskUnits="userSpaceOnUse" x="32.3" y="11.5" width="64.3" height="107.7" id="SVGID_24_">
			<g class="st29">
				<linearGradient id="SVGID_25_" gradientUnits="userSpaceOnUse" x1="64.4839" y1="11.6884" x2="64.4839" y2="118.9304">
					<stop  offset="0" style="stop-color:#000000"/>
					<stop  offset="0.1359" style="stop-color:#030303"/>
					<stop  offset="0.2184" style="stop-color:#0B0B0B"/>
					<stop  offset="0.2867" style="stop-color:#191919"/>
					<stop  offset="0.3472" style="stop-color:#2E2E2E"/>
					<stop  offset="0.4026" style="stop-color:#484848"/>
					<stop  offset="0.4534" style="stop-color:#686868"/>
					<stop  offset="0.485" style="stop-color:#808080"/>
					<stop  offset="0.5335" style="stop-color:#858585"/>
					<stop  offset="0.5944" style="stop-color:#959595"/>
					<stop  offset="0.6618" style="stop-color:#AEAEAE"/>
					<stop  offset="0.7339" style="stop-color:#D2D2D2"/>
					<stop  offset="0.8085" style="stop-color:#FFFFFF"/>
				</linearGradient>
				<path class="st30" d="M96.6,11.5c-16.8,0-30.4,24.1-30.4,53.8c0,29.7,13.6,53.8,30.4,53.8H62.8c-16.8,0-30.4-24.1-30.4-53.8
					c0-29.7,13.6-53.8,30.4-53.8H96.6z"/>
			</g>
		</mask>
		<path class="st31" d="M96.6,11.5c-16.8,0-30.4,24.1-30.4,53.8c0,29.7,13.6,53.8,30.4,53.8H62.8c-16.8,0-30.4-24.1-30.4-53.8
			c0-29.7,13.6-53.8,30.4-53.8H96.6z"/>
		<defs>
			<filter id="Adobe_OpacityMaskFilter_9_" filterUnits="userSpaceOnUse" x="62.8" y="11.5" width="64.3" height="107.7">
				
					<feColorMatrix  type="matrix" values="-1 0 0 0 1  0 -1 0 0 1  0 0 -1 0 1  0 0 0 1 0" color-interpolation-filters="sRGB" result="source"/>
			</filter>
		</defs>
		<mask maskUnits="userSpaceOnUse" x="62.8" y="11.5" width="64.3" height="107.7" id="SVGID_26_">
			<g class="st32">
				<linearGradient id="SVGID_27_" gradientUnits="userSpaceOnUse" x1="94.932" y1="11.7991" x2="94.932" y2="118.827">
					<stop  offset="0" style="stop-color:#000000"/>
					<stop  offset="0.277" style="stop-color:#000000"/>
					<stop  offset="0.3707" style="stop-color:#000000"/>
					<stop  offset="0.7267" style="stop-color:#000000"/>
					<stop  offset="1" style="stop-color:#FFFFFF"/>
				</linearGradient>
				<path class="st33" d="M62.8,119.2c16.8,0,30.4-24.1,30.4-53.8c0-29.7-13.6-53.8-30.4-53.8h33.9c16.8,0,30.4,24.1,30.4,53.8
					c0,29.7-13.6,53.8-30.4,53.8H62.8z"/>
			</g>
		</mask>
		<linearGradient id="SVGID_28_" gradientUnits="userSpaceOnUse" x1="94.932" y1="11.7991" x2="94.932" y2="118.827">
			<stop  offset="0" style="stop-color:#9FE7FF"/>
			<stop  offset="0.277" style="stop-color:#1CAFF7"/>
			<stop  offset="0.3707" style="stop-color:#43C1F8"/>
			<stop  offset="0.7267" style="stop-color:#ADE4FC"/>
			<stop  offset="1" style="stop-color:#ADE4FC"/>
		</linearGradient>
		<path class="st34" d="M62.8,119.2c16.8,0,30.4-24.1,30.4-53.8c0-29.7-13.6-53.8-30.4-53.8h33.9c16.8,0,30.4,24.1,30.4,53.8
			c0,29.7-13.6,53.8-30.4,53.8H62.8z"/>
	</g>
	<g>
		<defs>
			<filter id="Adobe_OpacityMaskFilter_10_" filterUnits="userSpaceOnUse" x="1" y="26.1" width="46.9" height="78.5">
				
					<feColorMatrix  type="matrix" values="-1 0 0 0 1  0 -1 0 0 1  0 0 -1 0 1  0 0 0 1 0" color-interpolation-filters="sRGB" result="source"/>
			</filter>
		</defs>
		<mask maskUnits="userSpaceOnUse" x="1" y="26.1" width="46.9" height="78.5" id="SVGID_29_">
			<g class="st35">
				<linearGradient id="SVGID_30_" gradientUnits="userSpaceOnUse" x1="24.455" y1="26.7347" x2="24.455" y2="104.421">
					<stop  offset="0" style="stop-color:#000000"/>
					<stop  offset="0.1359" style="stop-color:#030303"/>
					<stop  offset="0.2184" style="stop-color:#0B0B0B"/>
					<stop  offset="0.2867" style="stop-color:#191919"/>
					<stop  offset="0.3472" style="stop-color:#2E2E2E"/>
					<stop  offset="0.4026" style="stop-color:#484848"/>
					<stop  offset="0.4534" style="stop-color:#686868"/>
					<stop  offset="0.485" style="stop-color:#808080"/>
					<stop  offset="0.5335" style="stop-color:#858585"/>
					<stop  offset="0.5944" style="stop-color:#959595"/>
					<stop  offset="0.6618" style="stop-color:#AEAEAE"/>
					<stop  offset="0.7339" style="stop-color:#D2D2D2"/>
					<stop  offset="0.8085" style="stop-color:#FFFFFF"/>
				</linearGradient>
				<path class="st36" d="M47.9,26.1c-12.3,0-22.2,17.6-22.2,39.3s9.9,39.3,22.2,39.3H23.2C10.9,104.7,1,87.1,1,65.4
					s9.9-39.3,22.2-39.3H47.9z"/>
			</g>
		</mask>
		<path class="st37" d="M47.9,26.1c-12.3,0-22.2,17.6-22.2,39.3s9.9,39.3,22.2,39.3H23.2C10.9,104.7,1,87.1,1,65.4
			s9.9-39.3,22.2-39.3H47.9z"/>
		<defs>
			<filter id="Adobe_OpacityMaskFilter_11_" filterUnits="userSpaceOnUse" x="23.2" y="26.1" width="46.9" height="78.5">
				
					<feColorMatrix  type="matrix" values="-1 0 0 0 1  0 -1 0 0 1  0 0 -1 0 1  0 0 0 1 0" color-interpolation-filters="sRGB" result="source"/>
			</filter>
		</defs>
		<mask maskUnits="userSpaceOnUse" x="23.2" y="26.1" width="46.9" height="78.5" id="SVGID_31_">
			<g class="st38">
				<linearGradient id="SVGID_32_" gradientUnits="userSpaceOnUse" x1="46.6641" y1="26.2986" x2="46.6641" y2="104.3659">
					<stop  offset="0" style="stop-color:#000000"/>
					<stop  offset="0.277" style="stop-color:#000000"/>
					<stop  offset="0.3707" style="stop-color:#000000"/>
					<stop  offset="0.7267" style="stop-color:#000000"/>
					<stop  offset="1" style="stop-color:#FFFFFF"/>
				</linearGradient>
				<path class="st39" d="M23.2,104.7c12.3,0,22.2-17.6,22.2-39.3s-9.9-39.3-22.2-39.3h24.7c12.3,0,22.2,17.6,22.2,39.3
					s-9.9,39.3-22.2,39.3H23.2z"/>
			</g>
		</mask>
		<linearGradient id="SVGID_33_" gradientUnits="userSpaceOnUse" x1="46.6641" y1="26.2986" x2="46.6641" y2="104.3659">
			<stop  offset="0" style="stop-color:#9FE7FF"/>
			<stop  offset="0.277" style="stop-color:#1CAFF7"/>
			<stop  offset="0.3707" style="stop-color:#43C1F8"/>
			<stop  offset="0.7267" style="stop-color:#ADE4FC"/>
			<stop  offset="1" style="stop-color:#ADE4FC"/>
		</linearGradient>
		<path class="st40" d="M23.2,104.7c12.3,0,22.2-17.6,22.2-39.3s-9.9-39.3-22.2-39.3h24.7c12.3,0,22.2,17.6,22.2,39.3
			s-9.9,39.3-22.2,39.3H23.2z"/>
	</g>
</g>
</svg>
